<?xml version="1.0" encoding="iso-8859-1"?>
<!-- Generator: Adobe Illustrator 16.0.0, SVG Export Plug-In . SVG Version: 6.00 Build 0)  -->
<!DOCTYPE svg PUBLIC "-//W3C//DTD SVG 1.1//EN" "http://www.w3.org/Graphics/SVG/1.1/DTD/svg11.dtd">
<svg version="1.1" id="Capa_1" xmlns="http://www.w3.org/2000/svg" xmlns:xlink="http://www.w3.org/1999/xlink" x="0px" y="0px"
	 width="32px" height="32px" viewBox="0 0 32 32" style="enable-background:new 0 0 32 32;" xml:space="preserve">
<g>
	<g>
		<path d="M31.293,7.997c-0.455-1.077-1.113-2.047-1.93-2.861c-0.813-0.812-1.783-1.473-2.859-1.929C25.427,2.752,24.243,2.5,23,2.5
			c-1.242,0-2.426,0.314-3.503,0.863c-1.077,0.55-2.046,1.334-2.86,2.272C16.411,5.896,16.201,6.17,16,6.452
			c-0.2-0.282-0.41-0.556-0.636-0.816c-0.814-0.938-1.784-1.723-2.86-2.271C11.427,2.814,10.242,2.5,9,2.5S6.573,2.752,5.496,3.207
			C4.42,3.663,3.45,4.322,2.636,5.136C1.821,5.95,1.162,6.92,0.707,7.997C0.252,9.073,0,10.258,0,11.5s0.252,2.427,0.707,3.503
			c0.455,1.077,1.114,2.047,1.929,2.861C3.45,18.678,14.924,29.044,16,29.5c1.076-0.456,12.55-10.822,13.363-11.636
			c0.814-0.814,1.475-1.784,1.93-2.861C31.748,13.927,32,12.742,32,11.5S31.748,9.073,31.293,7.997z M22,18h-4v3.999h-4V18h-4v-4h4
			v-4h4v4h4V18z"/>
	</g>
</g>
<g>
</g>
<g>
</g>
<g>
</g>
<g>
</g>
<g>
</g>
<g>
</g>
<g>
</g>
<g>
</g>
<g>
</g>
<g>
</g>
<g>
</g>
<g>
</g>
<g>
</g>
<g>
</g>
<g>
</g>
</svg>
